# xmcd
#
# Track frame offsets: 
#        150
#        18641
#        33209
#        52864
#        70088
#        101118
#        112531
#        129020
#        153852
#        171572
#        190574
#        205917
#        220093
#        238199
#
# Disc length: 3365 seconds
#
# Revision: 1
# Processed by: cddbd v1.5.2PL0 Copyright (c) Steve Scherf et al.
# Submitted via: ExactAudioCopyFreeDBPlugin 1.0
#
DISCID=af0d230e
DTITLE=Nina Simone - Trilogy - Little Girl Blue
DYEAR=2010
DGENRE=Blues
TTITLE0=Mood Indigo
TTITLE1=Don't Smoke in Bed
TTITLE2=Little Girl Blue
TTITLE3=You'll Never Walk Alone
TTITLE4=Central Park Blues
TTITLE5=He Needs Me
TTITLE6=My Baby Just Cares for Me
TTITLE7=Good Bait
TTITLE8=Plain Gold Ring
TTITLE9=I Loves You Porgy
TTITLE10=Love Me or Leave Me
TTITLE11=He's Got The Whole World In His Hands
TTITLE12=For All We Know
TTITLE13=African Mailman
EXTD=
EXTT0=
EXTT1=
EXTT2=
EXTT3=
EXTT4=
EXTT5=
EXTT6=
EXTT7=
EXTT8=
EXTT9=
EXTT10=
EXTT11=
EXTT12=
EXTT13=
PLAYORDER=
